<svg xmlns="http://www.w3.org/2000/svg" xmlns:xlink="http://www.w3.org/1999/xlink" viewBox="0 0 260.6 86.25">
  <defs>
    <style>
      .a {
        fill: url(#a);
      }
    </style>
    <linearGradient id="a" data-name="New Gradient Swatch 2" y1="43.13" x2="260.6" y2="43.13" gradientUnits="userSpaceOnUse">
      <stop offset="0" stop-color="#2680a6"/>
      <stop offset="0.75" stop-color="#57b7b6"/>
      <stop offset="1" stop-color="#71cabc"/>
    </linearGradient>
  </defs>
  <title>bwl-logo</title>
  <path class="a" d="M217.25,0a43.68,43.68,0,0,0-36.56,20.11c-4.28,6-8.88,6-13.89,0v.19A43.22,43.22,0,0,0,130.19,0,42.71,42.71,0,0,0,93.63,20.11c-4.21,6-8.9,6-13.75.19a43.18,43.18,0,1,0-36.71,66A43.39,43.39,0,0,0,79.88,65.92c4.66-4.43,9.13-5,13.75.21a43.2,43.2,0,0,0,73.17-.21v.21c4.58-4.64,9.23-5.2,13.89,0A43.23,43.23,0,1,0,217.25,0ZM54,48.32a11.15,11.15,0,0,1-.78,4.26A11.48,11.48,0,0,1,47,58.4a11.08,11.08,0,0,1-4.27.78h-.58a9.21,9.21,0,0,1-3.87-.78,10.62,10.62,0,0,1-6.37-5.82,8.09,8.09,0,0,1-1-4.26V26.86l6.58-.74V38.27a9.7,9.7,0,0,1,4.64-1.54h.58a10.73,10.73,0,0,1,8,3.28,11.53,11.53,0,0,1,2.5,3.7A10.1,10.1,0,0,1,54,48.32Zm81.64,11.06-6.39-13.17-6.37,13L112.4,34.77l7.35-.75,3.69,11,5.8-12.18L135,44.68,138.89,34l7.17.59Zm90.89-1H211.85V26.66l6.76-.54V52.58h9.48ZM47.69,47.92a5.22,5.22,0,1,1-5.21-5.21A5.22,5.22,0,0,1,47.69,47.92Z"/>
</svg>
